<svg xmlns="http://www.w3.org/2000/svg" width="437" height="40" viewBox="0 0 437 40"><path d="M0,0.5 H437 H436.5 V28 A11.5,11.5 0 0 1 425,39.5 H12 A11.5,11.5 0 0 1 0.5,28 V0 V0.5 Z" fill="#161b22" stroke="#30363d"/><text x="16" y="24.9" font-family="-apple-system,BlinkMacSystemFont,'Segoe UI',Helvetica,Arial,sans-serif" font-size="14" fill="#A78BFA" font-weight="600">&lt;/&gt; View source on GitHub</text><text x="403" y="24.9" text-anchor="end" font-family="-apple-system,BlinkMacSystemFont,'Segoe UI',Helvetica,Arial,sans-serif" font-size="13" fill="#8b949e">35</text><g fill="none" stroke="#8b949e" stroke-width="1.47" stroke-linecap="round"><circle cx="373.6" cy="15.8" r="1.7"/><circle cx="379.9" cy="15.8" r="1.7"/><circle cx="376.7" cy="24.7" r="1.7"/><path d="M373.6,17.5 v1.4 q0,1.6 1.6,1.6 h2.8 q1.6,0 1.6,-1.6 v-1.4 M376.7,20.6 v2.3"/></g><text x="359.5" y="24.9" text-anchor="end" font-family="-apple-system,BlinkMacSystemFont,'Segoe UI',Helvetica,Arial,sans-serif" font-size="13" fill="#8b949e">135</text><polygon points="325.2,13.7 323.5,17.7 319.2,18.1 322.5,20.9 321.4,25.1 325.2,22.8 328.9,25.1 327.8,20.9 331.1,18.1 326.8,17.7" fill="#8b949e"/><path d="M416,15.0 l5,5 l-5,5" fill="none" stroke="#8b949e" stroke-width="1.6" stroke-linecap="round" stroke-linejoin="round"/></svg>