<svg xmlns="http://www.w3.org/2000/svg" width="685" height="42" viewBox="0 0 685 42"><path d="M0,0.5 H685 H684.5 V30 A11.5,11.5 0 0 1 673,41.5 H12 A11.5,11.5 0 0 1 0.5,30 V0 V0.5 Z" fill="#161b22" stroke="#30363d"/><text x="16" y="25.9" font-family="-apple-system,BlinkMacSystemFont,'Segoe UI',Helvetica,Arial,sans-serif" font-size="14" fill="#A78BFA" font-weight="600">&lt;/&gt; View source on GitHub</text><text x="651" y="25.9" text-anchor="end" font-family="-apple-system,BlinkMacSystemFont,'Segoe UI',Helvetica,Arial,sans-serif" font-size="13" fill="#8b949e">35</text><g fill="none" stroke="#8b949e" stroke-width="1.47" stroke-linecap="round"><circle cx="621.6" cy="16.8" r="1.7"/><circle cx="627.9" cy="16.8" r="1.7"/><circle cx="624.7" cy="25.7" r="1.7"/><path d="M621.6,18.5 v1.4 q0,1.6 1.6,1.6 h2.8 q1.6,0 1.6,-1.6 v-1.4 M624.7,21.6 v2.3"/></g><text x="607.5" y="25.9" text-anchor="end" font-family="-apple-system,BlinkMacSystemFont,'Segoe UI',Helvetica,Arial,sans-serif" font-size="13" fill="#8b949e">137</text><polygon points="573.2,14.7 571.5,18.7 567.2,19.1 570.5,21.9 569.4,26.1 573.2,23.8 576.9,26.1 575.8,21.9 579.1,19.1 574.8,18.7" fill="#8b949e"/><path d="M664,16.0 l5,5 l-5,5" fill="none" stroke="#8b949e" stroke-width="1.6" stroke-linecap="round" stroke-linejoin="round"/></svg>