<svg xmlns="http://www.w3.org/2000/svg" width="640" height="40" viewBox="0 0 640 40"><path d="M0,0.5 H640 H639.5 V28 A11.5,11.5 0 0 1 628,39.5 H12 A11.5,11.5 0 0 1 0.5,28 V0 V0.5 Z" fill="#161b22" stroke="#30363d"/><text x="16" y="24.9" font-family="-apple-system,BlinkMacSystemFont,'Segoe UI',Helvetica,Arial,sans-serif" font-size="14" fill="#A78BFA" font-weight="600">&lt;/&gt; View source on GitHub</text><text x="606" y="24.9" text-anchor="end" font-family="-apple-system,BlinkMacSystemFont,'Segoe UI',Helvetica,Arial,sans-serif" font-size="13" fill="#8b949e">1</text><g fill="none" stroke="#8b949e" stroke-width="1.47" stroke-linecap="round"><circle cx="584.7" cy="15.8" r="1.7"/><circle cx="591.0" cy="15.8" r="1.7"/><circle cx="587.9" cy="24.7" r="1.7"/><path d="M584.7,17.5 v1.4 q0,1.6 1.6,1.6 h2.8 q1.6,0 1.6,-1.6 v-1.4 M587.9,20.6 v2.3"/></g><text x="570.6" y="24.9" text-anchor="end" font-family="-apple-system,BlinkMacSystemFont,'Segoe UI',Helvetica,Arial,sans-serif" font-size="13" fill="#8b949e">10</text><polygon points="544.5,13.7 542.8,17.7 538.5,18.1 541.8,20.9 540.8,25.1 544.5,22.8 548.2,25.1 547.2,20.9 550.5,18.1 546.1,17.7" fill="#8b949e"/><path d="M619,15.0 l5,5 l-5,5" fill="none" stroke="#8b949e" stroke-width="1.6" stroke-linecap="round" stroke-linejoin="round"/></svg>