<svg xmlns="http://www.w3.org/2000/svg" width="400" height="38" viewBox="0 0 400 38"><path d="M0,0.5 H400 H399.5 V26 A11.5,11.5 0 0 1 388,37.5 H12 A11.5,11.5 0 0 1 0.5,26 V0 V0.5 Z" fill="#161b22" stroke="#30363d"/><text x="16" y="23.6" font-family="-apple-system,BlinkMacSystemFont,'Segoe UI',Helvetica,Arial,sans-serif" font-size="13" fill="#A78BFA" font-weight="600">&lt;/&gt; View source on GitHub</text><text x="366" y="23.6" text-anchor="end" font-family="-apple-system,BlinkMacSystemFont,'Segoe UI',Helvetica,Arial,sans-serif" font-size="12" fill="#8b949e">4</text><g fill="none" stroke="#8b949e" stroke-width="1.36" stroke-linecap="round"><circle cx="346.0" cy="15.1" r="1.6"/><circle cx="351.9" cy="15.1" r="1.6"/><circle cx="348.9" cy="23.4" r="1.6"/><path d="M346.0,16.7 v1.4 q0,1.6 1.6,1.6 h2.8 q1.6,0 1.6,-1.6 v-1.4 M348.9,19.6 v2.3"/></g><text x="332.1" y="23.6" text-anchor="end" font-family="-apple-system,BlinkMacSystemFont,'Segoe UI',Helvetica,Arial,sans-serif" font-size="12" fill="#8b949e">17</text><polygon points="307.6,13.1 306.0,16.9 302.0,17.2 305.1,19.8 304.1,23.7 307.6,21.6 311.0,23.7 310.1,19.8 313.1,17.2 309.1,16.9" fill="#8b949e"/><path d="M379,14.0 l5,5 l-5,5" fill="none" stroke="#8b949e" stroke-width="1.6" stroke-linecap="round" stroke-linejoin="round"/></svg>