<svg xmlns="http://www.w3.org/2000/svg" width="540" height="41" viewBox="0 0 540 41"><path d="M0,0.5 H540 H539.5 V29 A11.5,11.5 0 0 1 528,40.5 H12 A11.5,11.5 0 0 1 0.5,29 V0 V0.5 Z" fill="#161b22" stroke="#30363d"/><text x="16" y="25.4" font-family="-apple-system,BlinkMacSystemFont,'Segoe UI',Helvetica,Arial,sans-serif" font-size="14" fill="#A78BFA" font-weight="600">&lt;/&gt; View source on GitHub</text><text x="506" y="25.4" text-anchor="end" font-family="-apple-system,BlinkMacSystemFont,'Segoe UI',Helvetica,Arial,sans-serif" font-size="13" fill="#8b949e">15</text><g fill="none" stroke="#8b949e" stroke-width="1.47" stroke-linecap="round"><circle cx="476.6" cy="16.3" r="1.7"/><circle cx="482.9" cy="16.3" r="1.7"/><circle cx="479.7" cy="25.2" r="1.7"/><path d="M476.6,18.0 v1.4 q0,1.6 1.6,1.6 h2.8 q1.6,0 1.6,-1.6 v-1.4 M479.7,21.1 v2.3"/></g><text x="462.5" y="25.4" text-anchor="end" font-family="-apple-system,BlinkMacSystemFont,'Segoe UI',Helvetica,Arial,sans-serif" font-size="13" fill="#8b949e">24</text><polygon points="436.3,14.2 434.6,18.2 430.3,18.6 433.6,21.4 432.6,25.6 436.3,23.3 440.0,25.6 439.0,21.4 442.3,18.6 438.0,18.2" fill="#8b949e"/><path d="M519,15.5 l5,5 l-5,5" fill="none" stroke="#8b949e" stroke-width="1.6" stroke-linecap="round" stroke-linejoin="round"/></svg>