<svg xmlns="http://www.w3.org/2000/svg" width="400" height="38" viewBox="0 0 400 38"><path d="M0,0.5 H400 H399.5 V26 A11.5,11.5 0 0 1 388,37.5 H12 A11.5,11.5 0 0 1 0.5,26 V0 V0.5 Z" fill="#161b22" stroke="#30363d"/><text x="16" y="23.6" font-family="-apple-system,BlinkMacSystemFont,'Segoe UI',Helvetica,Arial,sans-serif" font-size="13" fill="#A78BFA" font-weight="600">&lt;/&gt; View source on GitHub</text><text x="366" y="23.6" text-anchor="end" font-family="-apple-system,BlinkMacSystemFont,'Segoe UI',Helvetica,Arial,sans-serif" font-size="12" fill="#8b949e">15</text><g fill="none" stroke="#8b949e" stroke-width="1.36" stroke-linecap="round"><circle cx="338.5" cy="15.1" r="1.6"/><circle cx="344.3" cy="15.1" r="1.6"/><circle cx="341.4" cy="23.4" r="1.6"/><path d="M338.5,16.7 v1.4 q0,1.6 1.6,1.6 h2.8 q1.6,0 1.6,-1.6 v-1.4 M341.4,19.6 v2.3"/></g><text x="324.5" y="23.6" text-anchor="end" font-family="-apple-system,BlinkMacSystemFont,'Segoe UI',Helvetica,Arial,sans-serif" font-size="12" fill="#8b949e">24</text><polygon points="300.0,13.1 298.5,16.9 294.5,17.2 297.5,19.8 296.6,23.7 300.0,21.6 303.5,23.7 302.5,19.8 305.6,17.2 301.6,16.9" fill="#8b949e"/><path d="M379,14.0 l5,5 l-5,5" fill="none" stroke="#8b949e" stroke-width="1.6" stroke-linecap="round" stroke-linejoin="round"/></svg>