<svg xmlns="http://www.w3.org/2000/svg" width="340" height="38" viewBox="0 0 340 38"><path d="M0,0.5 H340 H339.5 V26 A11.5,11.5 0 0 1 328,37.5 H12 A11.5,11.5 0 0 1 0.5,26 V0 V0.5 Z" fill="#161b22" stroke="#30363d"/><text x="16" y="23.6" font-family="-apple-system,BlinkMacSystemFont,'Segoe UI',Helvetica,Arial,sans-serif" font-size="13" fill="#A78BFA" font-weight="600">&lt;/&gt; View source on GitHub</text><text x="306" y="23.6" text-anchor="end" font-family="-apple-system,BlinkMacSystemFont,'Segoe UI',Helvetica,Arial,sans-serif" font-size="12" fill="#8b949e">15</text><g fill="none" stroke="#8b949e" stroke-width="1.36" stroke-linecap="round"><circle cx="278.5" cy="15.1" r="1.6"/><circle cx="284.3" cy="15.1" r="1.6"/><circle cx="281.4" cy="23.4" r="1.6"/><path d="M278.5,16.7 v1.4 q0,1.6 1.6,1.6 h2.8 q1.6,0 1.6,-1.6 v-1.4 M281.4,19.6 v2.3"/></g><text x="264.5" y="23.6" text-anchor="end" font-family="-apple-system,BlinkMacSystemFont,'Segoe UI',Helvetica,Arial,sans-serif" font-size="12" fill="#8b949e">24</text><polygon points="240.0,13.1 238.5,16.9 234.5,17.2 237.5,19.8 236.6,23.7 240.0,21.6 243.5,23.7 242.5,19.8 245.6,17.2 241.6,16.9" fill="#8b949e"/><path d="M319,14.0 l5,5 l-5,5" fill="none" stroke="#8b949e" stroke-width="1.6" stroke-linecap="round" stroke-linejoin="round"/></svg>