<svg xmlns="http://www.w3.org/2000/svg" width="420" height="38" viewBox="0 0 420 38"><g transform="translate(6,0)"><path d="M0,0.5 H408 H407.5 V26 A11.5,11.5 0 0 1 396,37.5 H12 A11.5,11.5 0 0 1 0.5,26 V0 V0.5 Z" fill="#161b22" stroke="#30363d"/><text x="16" y="23.6" font-family="-apple-system,BlinkMacSystemFont,'Segoe UI',Helvetica,Arial,sans-serif" font-size="13" fill="#A78BFA" font-weight="600">&lt;/&gt; View source on GitHub</text><text x="374" y="23.6" text-anchor="end" font-family="-apple-system,BlinkMacSystemFont,'Segoe UI',Helvetica,Arial,sans-serif" font-size="12" fill="#8b949e">15</text><g fill="none" stroke="#8b949e" stroke-width="1.36" stroke-linecap="round"><circle cx="346.5" cy="15.1" r="1.6"/><circle cx="352.3" cy="15.1" r="1.6"/><circle cx="349.4" cy="23.4" r="1.6"/><path d="M346.5,16.7 v1.4 q0,1.6 1.6,1.6 h2.8 q1.6,0 1.6,-1.6 v-1.4 M349.4,19.6 v2.3"/></g><text x="332.5" y="23.6" text-anchor="end" font-family="-apple-system,BlinkMacSystemFont,'Segoe UI',Helvetica,Arial,sans-serif" font-size="12" fill="#8b949e">24</text><polygon points="308.0,13.1 306.5,16.9 302.5,17.2 305.5,19.8 304.6,23.7 308.0,21.6 311.5,23.7 310.5,19.8 313.6,17.2 309.6,16.9" fill="#8b949e"/><path d="M387,14.0 l5,5 l-5,5" fill="none" stroke="#8b949e" stroke-width="1.6" stroke-linecap="round" stroke-linejoin="round"/></g></svg>